<?xml version="1.0" encoding="UTF-8" standalone="no"?>
<svg
   xmlns:dc="http://purl.org/dc/elements/1.1/"
   xmlns:cc="http://creativecommons.org/ns#"
   xmlns:rdf="http://www.w3.org/1999/02/22-rdf-syntax-ns#"
   xmlns:svg="http://www.w3.org/2000/svg"
   xmlns="http://www.w3.org/2000/svg"
   viewBox="0 0 566.93335 566.93335"
   height="566.93335"
   width="566.93335"
   xml:space="preserve"
   id="svg2"
   version="1.1"><metadata
     id="metadata8"><rdf:RDF><cc:Work
         rdf:about=""><dc:format>image/svg+xml</dc:format><dc:type
           rdf:resource="http://purl.org/dc/dcmitype/StillImage" /></cc:Work></rdf:RDF></metadata><defs
     id="defs6" /><g
     transform="matrix(1.3333333,0,0,-1.3333333,0,566.93333)"
     id="g10"><g
       transform="scale(0.1)"
       id="g12"><path
         id="path14"
         style="fill:none;stroke:none"
         d="M 0.0195313,0.0195313 H 4251.9895 V 4251.9795 H 0.0195313 Z" /><path
         id="path16"
         style="fill:#ed3947;fill-opacity:1;fill-rule:nonzero;stroke:none"
         d="m 639.543,2472.09 c -171.176,0 -325.117,119.05 -362.648,293.17 -32.274,149.82 30.765,298 148.351,381.36 69.469,-82.61 173.149,-132.61 284.09,-132.61 25.91,0 52.25,2.73 78.602,8.41 26.554,5.73 51.816,14.15 75.582,24.94 0.414,-23.83 3.144,-47.96 8.355,-72.14 13.449,-62.4 41.844,-117.73 80.637,-163.04 -116.828,-63.63 -191.668,-186.41 -193.582,-320.46 -13.219,-4.45 -26.832,-8.21 -40.793,-11.22 -26.356,-5.68 -52.684,-8.41 -78.594,-8.41" /><path
         id="path18"
         style="fill:#ed3947;fill-opacity:1;fill-rule:nonzero;stroke:none"
         d="m 2023.02,2923.9 c -69.25,90.36 -177.9,145.67 -294.57,145.67 -25.91,0 -52.25,-2.73 -78.61,-8.42 -14.95,-3.22 -29.48,-7.3 -43.58,-12.17 0.3,27.25 -2.41,54.94 -8.39,82.7 -11.51,53.43 -33.99,101.67 -64.56,142.87 9.62,-0.76 19.32,-1.14 29.06,-1.14 25.92,0 52.25,2.73 78.61,8.41 156.76,33.79 268.91,161.98 289.68,312.13 125.63,-37.5 227.5,-140.52 257.07,-277.74 33.77,-156.63 -36.68,-311.46 -164.71,-392.31" /><path
         id="path20"
         style="fill:#ed3947;fill-opacity:1;fill-rule:nonzero;stroke:none"
         d="m 1818.67,2043.6 c -61.33,0 -116.47,42.66 -129.9,105.03 -15.48,71.83 30.19,142.59 101.99,158.07 9.45,2.03 18.88,3.01 28.17,3.01 61.33,0 116.47,-42.65 129.92,-105.03 15.48,-71.82 -30.2,-142.6 -102.01,-158.06 -9.45,-2.04 -18.89,-3.02 -28.17,-3.02" /><path
         id="path22"
         style="fill:#f9a72b;fill-opacity:1;fill-rule:nonzero;stroke:none"
         d="m 2110.91,1914.38 c -50.91,0 -96.7,35.42 -107.86,87.22 -12.86,59.64 25.06,118.41 84.71,131.27 7.85,1.69 15.68,2.5 23.39,2.5 50.92,0 96.73,-35.41 107.88,-87.22 0.08,-0.36 0.16,-0.73 0.23,-1.1 h -105.12 v -132.63 c -1.08,-0.03 -2.15,-0.04 -3.23,-0.04" /><path
         id="path24"
         style="fill:#f9a72b;fill-opacity:1;fill-rule:nonzero;stroke:none"
         d="m 2439.89,2047.05 h -127.64 c 11.82,8.38 25.5,14.55 40.56,17.8 7.85,1.69 15.68,2.5 23.39,2.5 23.23,0 45.39,-7.37 63.69,-20.3" /><path
         id="path26"
         style="fill:#9842a6;fill-opacity:1;fill-rule:nonzero;stroke:none"
         d="m 2344.54,2092.5 c -38.02,0 -73.18,19.74 -93.21,51.3 0,8.21 0,13.05 0,13.05 0,74.04 57.15,134.05 127.63,134.05 14.35,0 28.14,-2.49 41.01,-7.07 15.98,-14.87 27.72,-34.6 32.67,-57.55 12.85,-59.65 -25.09,-118.42 -84.73,-131.28 -7.84,-1.69 -15.66,-2.5 -23.37,-2.5 m -106.75,138.73 c 10.31,38.88 41.55,70.72 83.58,79.77 2.69,0.59 5.39,1.06 8.08,1.44 -40.45,-13.51 -73.54,-43.11 -91.66,-81.21" /><path
         id="path28"
         style="fill:#ed3947;fill-opacity:1;fill-rule:nonzero;stroke:none"
         d="m 2246.69,2490.87 c -62.28,0 -118.3,43.33 -131.94,106.66 -15.73,72.95 30.66,144.83 103.61,160.55 9.59,2.06 19.16,3.06 28.59,3.06 62.27,0 118.3,-43.32 131.94,-106.67 15.73,-72.94 -30.65,-144.82 -103.6,-160.54 -9.59,-2.07 -19.17,-3.06 -28.6,-3.06" /><path
         id="path30"
         style="fill:#7fcc28;fill-opacity:1;fill-rule:nonzero;stroke:none"
         d="m 1364.53,2774.23 c -64.96,52.73 -147.2,83.24 -233.86,83.24 -25.91,0 -52.24,-2.73 -78.6,-8.41 -13.96,-3.01 -27.58,-6.77 -40.8,-11.22 0.4,27.62 -2.3,55.73 -8.37,83.88 -13.205,61.27 -40.83,115.73 -78.545,160.58 75.168,53.28 128.055,133.05 147.995,222.8 19.09,-3.06 38.58,-4.64 58.28,-4.64 25.91,0 52.24,2.74 78.6,8.42 43.35,9.34 83.28,25.89 118.82,48.14 37.87,-30.83 81.65,-54.12 128.76,-68.18 -5.79,-41.85 -4.47,-85.4 4.95,-129.1 11.95,-55.44 35.69,-105.29 68.04,-147.5 -85.09,-53.72 -144.73,-140.11 -165.27,-238.01" /><path
         id="path32"
         style="fill:#8d442e;fill-opacity:1;fill-rule:nonzero;stroke:none"
         d="m 952.512,2812.18 c -38.793,45.31 -67.188,100.64 -80.637,163.04 -5.211,24.18 -7.941,48.31 -8.355,72.14 21.574,9.79 41.918,21.53 60.835,34.94 37.715,-44.85 65.34,-99.31 78.545,-160.58 6.07,-28.15 8.77,-56.26 8.37,-83.88 -20.567,-6.93 -40.188,-15.55 -58.758,-25.66" /><path
         id="path34"
         style="fill:#8d442e;fill-opacity:1;fill-rule:nonzero;stroke:none"
         d="m 1529.8,3012.24 c -32.35,42.21 -56.09,92.06 -68.04,147.5 -9.42,43.7 -10.74,87.25 -4.95,129.1 24.72,-7.38 50.32,-12.22 76.5,-14.29 30.57,-41.2 53.05,-89.44 64.56,-142.87 5.98,-27.76 8.69,-55.45 8.39,-82.7 -27.24,-9.42 -52.84,-21.83 -76.46,-36.74" /><path
         id="path36"
         style="fill:#3bbec5;fill-opacity:1;fill-rule:nonzero;stroke:none"
         d="m 1468.28,3342.27 c -27.03,21.81 -57.02,39.79 -89.07,53.34 95.67,86.12 143.85,219.64 114.78,354.5 -18.48,85.76 -65.19,158.16 -128.32,209.55 35.54,22.25 75.48,38.81 118.83,48.16 26.36,5.68 52.67,8.41 78.58,8.41 171.17,0 325.13,-119.05 362.64,-293.18 9.42,-43.69 10.73,-87.25 4.94,-129.1 -33.79,10.09 -69.28,15.44 -105.56,15.44 -25.91,0 -52.24,-2.73 -78.6,-8.41 -137.8,-29.71 -241.12,-132.34 -278.22,-258.71" /><path
         id="path38"
         style="fill:#58454f;fill-opacity:1;fill-rule:nonzero;stroke:none"
         d="m 1562.37,3273.41 c -9.74,0 -19.44,0.38 -29.06,1.14 -18.82,25.38 -40.73,48.1 -65.03,67.72 37.1,126.37 140.42,229 278.22,258.71 26.36,5.68 52.69,8.41 78.6,8.41 36.28,0 71.77,-5.35 105.56,-15.44 -20.77,-150.15 -132.92,-278.34 -289.68,-312.13 -26.36,-5.68 -52.69,-8.41 -78.61,-8.41" /><path
         id="path40"
         style="fill:#1daf47;fill-opacity:1;fill-rule:nonzero;stroke:none"
         d="m 1456.81,3288.84 c -47.11,14.06 -90.89,37.35 -128.76,68.18 18.25,11.43 35.36,24.37 51.16,38.59 32.05,-13.55 62.04,-31.53 89.07,-53.34 -5.11,-17.41 -8.95,-35.26 -11.47,-53.43" /><path
         id="path42"
         style="fill:#434739;fill-opacity:1;fill-rule:nonzero;stroke:none"
         d="m 1533.31,3274.55 c -26.18,2.07 -51.78,6.91 -76.5,14.29 2.52,18.17 6.36,36.02 11.47,53.43 24.3,-19.62 46.21,-42.34 65.03,-67.72" /><path
         id="path44"
         style="fill:#3bbec5;fill-opacity:1;fill-rule:nonzero;stroke:none"
         d="m 1129.92,2114.66 c -171.182,0 -325.092,119.05 -362.615,293.18 -6.071,28.15 -8.77,56.26 -8.375,83.88 125.593,42.33 216.261,147.6 243.71,271.96 64.65,-51.74 146.09,-81.64 231.88,-81.64 25.91,0 52.25,2.74 78.61,8.42 14.93,3.22 29.47,7.3 43.56,12.17 -0.3,-27.24 2.41,-54.95 8.39,-82.7 18.54,-85.97 65.42,-158.51 128.78,-209.93 -29.2,-139.12 -137.4,-255.04 -285.32,-286.92 -26.36,-5.68 -52.7,-8.42 -78.62,-8.42" /><path
         id="path46"
         style="fill:#58454f;fill-opacity:1;fill-rule:nonzero;stroke:none"
         d="m 758.93,2491.72 c 1.914,134.05 76.754,256.83 193.582,320.46 15.203,-17.76 32.008,-33.99 50.128,-48.5 -27.449,-124.36 -118.117,-229.63 -243.71,-271.96" /><path
         id="path48"
         style="fill:#1daf47;fill-opacity:1;fill-rule:nonzero;stroke:none"
         d="m 1234.52,2682.04 c -85.79,0 -167.23,29.9 -231.88,81.64 5.32,24.12 8.27,48.92 8.63,74.16 13.22,4.45 26.84,8.21 40.8,11.22 26.36,5.68 52.69,8.41 78.6,8.41 86.66,0 168.9,-30.51 233.86,-83.24 -4.9,-23.31 -7.57,-47.27 -7.84,-71.6 -14.09,-4.87 -28.63,-8.95 -43.56,-12.17 -26.36,-5.68 -52.7,-8.42 -78.61,-8.42" /><path
         id="path50"
         style="fill:#434739;fill-opacity:1;fill-rule:nonzero;stroke:none"
         d="m 1002.64,2763.68 c -18.12,14.51 -34.925,30.74 -50.128,48.5 18.57,10.11 38.191,18.73 58.758,25.66 -0.36,-25.24 -3.31,-50.04 -8.63,-74.16" /><path
         id="path52"
         style="fill:#3bbec5;fill-opacity:1;fill-rule:nonzero;stroke:none"
         d="m 2099.35,2176.65 c -63.07,0 -119.78,43.87 -133.61,108.02 -15.95,73.87 31.06,146.65 104.92,162.58 9.72,2.09 19.42,3.1 28.97,3.1 63.07,0 119.77,-43.87 133.59,-108.01 15.93,-73.88 -31.05,-146.66 -104.92,-162.59 -9.71,-2.09 -19.4,-3.1 -28.95,-3.1" /><path
         id="path54"
         style="fill:#9842a6;fill-opacity:1;fill-rule:nonzero;stroke:none"
         d="m 1081.07,3391.52 c -0.42,23.82 -3.14,47.95 -8.36,72.13 -33.21,154.08 -157.554,265.05 -304.358,288.54 30.492,137.23 137.976,251.12 284.398,282.68 26.36,5.68 52.69,8.41 78.6,8.41 86.86,0 169.29,-30.66 234.32,-83.62 -128.8,-80.63 -199.8,-235.96 -165.94,-393.08 11.51,-53.42 33.98,-101.66 64.55,-142.87 -9.61,0.76 -19.31,1.15 -29.06,1.15 -25.91,0 -52.22,-2.73 -78.58,-8.41 -26.55,-5.72 -51.81,-14.15 -75.57,-24.93" /><path
         id="path56"
         style="fill:#624f34;fill-opacity:1;fill-rule:nonzero;stroke:none"
         d="m 1130.63,3300.46 c -19.7,0 -39.19,1.58 -58.28,4.64 6.22,28 9.23,56.97 8.72,86.42 23.76,10.78 49.02,19.21 75.57,24.93 26.36,5.68 52.67,8.41 78.58,8.41 9.75,0 19.45,-0.39 29.06,-1.15 18.51,-24.94 39.96,-47.31 63.77,-66.69 -35.54,-22.25 -75.47,-38.8 -118.82,-48.14 -26.36,-5.68 -52.69,-8.42 -78.6,-8.42" /><path
         id="path58"
         style="fill:#404c8b;fill-opacity:1;fill-rule:nonzero;stroke:none"
         d="m 1379.21,3395.61 c -36.15,15.29 -74.88,24.94 -114.93,28.1 -30.57,41.21 -53.04,89.45 -64.55,142.87 -33.86,157.12 37.14,312.45 165.94,393.08 63.13,-51.39 109.84,-123.79 128.32,-209.55 29.07,-134.86 -19.11,-268.38 -114.78,-354.5" /><path
         id="path60"
         style="fill:#364f3c;fill-opacity:1;fill-rule:nonzero;stroke:none"
         d="m 1328.05,3357.02 c -23.81,19.38 -45.26,41.75 -63.77,66.69 40.05,-3.16 78.78,-12.81 114.93,-28.1 -15.8,-14.22 -32.91,-27.16 -51.16,-38.59" /><path
         id="path62"
         style="fill:#f9a72b;fill-opacity:1;fill-rule:nonzero;stroke:none"
         d="m 872.125,3133.27 c -64.645,51.74 -146.09,81.63 -231.871,81.63 -25.914,0 -52.234,-2.73 -78.594,-8.41 -50.656,-10.92 -96.652,-31.69 -136.414,-59.87 -37.711,44.84 -65.324,99.29 -78.527,160.56 -43.203,200.49 84.277,398.03 284.758,441.24 26.355,5.68 52.683,8.41 78.593,8.41 19.703,0 39.188,-1.58 58.282,-4.64 -11.254,-50.67 -12.012,-104.5 -0.364,-158.56 26.492,-122.93 111,-218.42 218.66,-263.93 -57.449,-51.71 -97.765,-120.51 -114.523,-196.43" /><path
         id="path64"
         style="fill:#ec3226;fill-opacity:1;fill-rule:nonzero;stroke:none"
         d="m 709.336,3014.01 c -110.941,0 -214.621,50 -284.09,132.61 39.762,28.18 85.758,48.95 136.414,59.87 26.36,5.68 52.68,8.41 78.594,8.41 85.781,0 167.226,-29.89 231.871,-81.63 -6.145,-27.85 -9.117,-56.65 -8.605,-85.91 -23.766,-10.79 -49.028,-19.21 -75.582,-24.94 -26.352,-5.68 -52.692,-8.41 -78.602,-8.41" /><path
         id="path66"
         style="fill:#85932a;fill-opacity:1;fill-rule:nonzero;stroke:none"
         d="m 924.355,3082.3 c -15.753,18.74 -33.265,35.79 -52.23,50.97 16.758,75.92 57.074,144.72 114.523,196.43 27.272,-11.52 56.032,-19.85 85.702,-24.6 -19.94,-89.75 -72.827,-169.52 -147.995,-222.8" /><path
         id="path68"
         style="fill:#8e3a2e;fill-opacity:1;fill-rule:nonzero;stroke:none"
         d="m 863.52,3047.36 c -0.512,29.26 2.46,58.06 8.605,85.91 18.965,-15.18 36.477,-32.23 52.23,-50.97 -18.917,-13.41 -39.261,-25.15 -60.835,-34.94" /><path
         id="path70"
         style="fill:#9c3e3d;fill-opacity:1;fill-rule:nonzero;stroke:none"
         d="m 986.648,3329.7 c -107.66,45.51 -192.168,141 -218.66,263.93 -11.648,54.06 -10.89,107.89 0.364,158.56 146.804,-23.49 271.148,-134.46 304.358,-288.54 5.22,-24.18 7.94,-48.31 8.36,-72.13 -34.97,-15.88 -66.7,-36.87 -94.422,-61.82" /><path
         id="path72"
         style="fill:#654434;fill-opacity:1;fill-rule:nonzero;stroke:none"
         d="m 1072.35,3305.1 c -29.67,4.75 -58.43,13.08 -85.702,24.6 27.722,24.95 59.452,45.94 94.422,61.82 0.51,-29.45 -2.5,-58.42 -8.72,-86.42" /><path
         id="path74"
         style="fill:#f9a72b;fill-opacity:1;fill-rule:nonzero;stroke:none"
         d="m 1727.7,2326.76 c -86.65,0 -168.89,30.52 -233.84,83.24 10.36,49.42 10.77,101.76 -0.56,154.3 -13.45,62.4 -41.84,117.73 -80.63,163.04 87.3,47.55 151.16,128.17 178.66,221.82 64.83,-52.33 146.74,-82.59 233.05,-82.59 25.91,0 52.23,2.73 78.59,8.41 43.85,9.46 84.2,26.29 120.05,48.92 32.35,-42.21 56.09,-92.07 68.03,-147.51 43.23,-200.47 -84.27,-398.01 -284.74,-441.22 -26.36,-5.68 -52.69,-8.41 -78.61,-8.41" /><path
         id="path76"
         style="fill:#ec3226;fill-opacity:1;fill-rule:nonzero;stroke:none"
         d="m 1824.38,2866.57 c -86.31,0 -168.22,30.26 -233.05,82.59 9.4,32.02 14.54,65.56 14.93,99.82 14.1,4.87 28.63,8.95 43.58,12.17 26.36,5.69 52.7,8.42 78.61,8.42 116.67,0 225.32,-55.31 294.57,-145.67 -35.85,-22.63 -76.2,-39.46 -120.05,-48.92 -26.36,-5.68 -52.68,-8.41 -78.59,-8.41" /><path
         id="path78"
         style="fill:#85932a;fill-opacity:1;fill-rule:nonzero;stroke:none"
         d="m 1412.67,2727.34 c -14.65,17.11 -30.78,32.8 -48.14,46.89 20.54,97.9 80.18,184.29 165.27,238.01 18.02,-23.51 38.72,-44.67 61.53,-63.08 -27.5,-93.65 -91.36,-174.27 -178.66,-221.82" /><path
         id="path80"
         style="fill:#8e3a2e;fill-opacity:1;fill-rule:nonzero;stroke:none"
         d="m 1591.33,2949.16 c -22.81,18.41 -43.51,39.57 -61.53,63.08 23.62,14.91 49.22,27.32 76.46,36.74 -0.39,-34.26 -5.53,-67.8 -14.93,-99.82" /><path
         id="path82"
         style="fill:#48884b;fill-opacity:1;fill-rule:nonzero;stroke:none"
         d="m 1493.86,2410 c -63.36,51.42 -110.24,123.96 -128.78,209.93 -5.98,27.75 -8.69,55.46 -8.39,82.7 19.56,6.76 38.25,15.06 55.98,24.71 38.79,-45.31 67.18,-100.64 80.63,-163.04 11.33,-52.54 10.92,-104.88 0.56,-154.3" /><path
         id="path84"
         style="fill:#2d8341;fill-opacity:1;fill-rule:nonzero;stroke:none"
         d="m 1356.69,2702.63 c 0.27,24.33 2.94,48.29 7.84,71.6 17.36,-14.09 33.49,-29.78 48.14,-46.89 -17.73,-9.65 -36.42,-17.95 -55.98,-24.71" /><path
         id="path86"
         style="fill:#ffffff;fill-opacity:1;fill-rule:nonzero;stroke:none"
         d="m 516.367,2863.29 c -28.027,39.48 -18.191,94.6 22,123.14 40.188,28.56 95.488,19.7 123.528,-19.77 28.046,-39.46 18.203,-94.62 -21.993,-123.16 -40.195,-28.55 -95.488,-19.68 -123.535,19.79 z m 165.84,117.8 c -35.859,50.48 -106.602,61.8 -158.008,25.29 -51.406,-36.51 -64.004,-107.04 -28.144,-157.53 31.992,-45.03 91.726,-58.87 140.742,-35.42 l 26.094,-36.74 c -4.59,-4.7 -6.27,-10.54 -3.653,-14.21 l 63.379,-89.2 c 3.153,-4.44 11.328,-4.05 18.262,0.87 l 18.562,13.2 c 6.926,4.94 10,12.52 6.868,16.97 l -63.379,89.18 c -2.61,3.7 -8.692,4.03 -14.629,1.24 l -25.391,35.75 c 43.887,37.97 53.028,103.15 19.297,150.6" /><path
         id="path88"
         style="fill:#ffffff;fill-opacity:1;fill-rule:nonzero;stroke:none"
         d="m 1326.4,2920.03 c -1.48,51.7 -42.61,93.16 -93.14,93.16 -50.53,0 -91.64,-41.46 -93.12,-93.16 h 186.26" /><path
         id="path90"
         style="fill:#ffffff;fill-opacity:1;fill-rule:nonzero;stroke:none"
         d="m 1285.99,3081.56 c 0,-32.01 -23.62,-57.95 -52.73,-57.95 -29.12,0 -52.73,25.94 -52.73,57.95 0,32.02 23.61,57.96 52.73,57.96 29.11,0 52.73,-25.94 52.73,-57.96" /><path
         id="path92"
         style="fill:#ffffff;fill-opacity:1;fill-rule:nonzero;stroke:none"
         d="m 1450.38,2939.76 c -1.12,39.5 -32.56,71.18 -71.16,71.18 -38.59,0 -70,-31.68 -71.12,-71.18 h 142.28" /><path
         id="path94"
         style="fill:#ffffff;fill-opacity:1;fill-rule:nonzero;stroke:none"
         d="m 1419.49,3063.18 c 0,-24.46 -18.01,-44.28 -40.27,-44.28 -22.25,0 -40.26,19.82 -40.26,44.28 0,24.44 18.01,44.28 40.26,44.28 22.26,0 40.27,-19.84 40.27,-44.28" /><path
         id="path96"
         style="fill:#ffffff;fill-opacity:1;fill-rule:nonzero;stroke:none"
         d="m 1148.63,2939.76 c -1.11,39.5 -32.56,71.18 -71.14,71.18 -38.6,0 -70.02,-31.68 -71.14,-71.18 h 142.28" /><path
         id="path98"
         style="fill:#ffffff;fill-opacity:1;fill-rule:nonzero;stroke:none"
         d="m 1117.77,3063.18 c 0,-24.46 -18.04,-44.28 -40.28,-44.28 -22.24,0 -40.29,19.82 -40.29,44.28 0,24.44 18.05,44.28 40.29,44.28 22.24,0 40.28,-19.84 40.28,-44.28" /><path
         id="path100"
         style="fill:#ffffff;fill-opacity:1;fill-rule:nonzero;stroke:none"
         d="m 1387.37,3212.04 c 0,-30.25 -27.31,-54.82 -60.97,-54.82 -12.26,0 -23.26,3.61 -35.55,0.58 -7.5,-1.85 -14.99,-9.31 -22.51,-8.83 3.63,10.12 9.77,23.12 5.96,34.64 -3.39,10.17 -8.9,16 -8.9,28.43 0,30.29 27.31,54.84 61,54.84 33.66,0 60.97,-24.55 60.97,-54.84" /><path
         id="path102"
         style="fill:#ffffff;fill-opacity:1;fill-rule:nonzero;stroke:none"
         d="m 1062.53,3164.1 c 0,-24.2 21.81,-43.82 48.74,-43.82 9.77,0 18.57,2.88 28.39,0.46 6,-1.48 11.96,-7.43 17.99,-7.05 -2.92,8.09 -7.82,18.47 -4.76,27.68 2.71,8.12 7.11,12.78 7.11,22.73 0,24.19 -21.84,43.81 -48.73,43.81 -26.93,0 -48.74,-19.62 -48.74,-43.81" /><path
         id="path104"
         style="fill:#ffffff;fill-opacity:1;fill-rule:nonzero;stroke:none"
         d="m 819.355,3251.75 c -2.175,75.99 -62.597,136.89 -136.835,136.89 -74.219,0 -134.629,-60.9 -136.829,-136.89 h 273.664" /><path
         id="path106"
         style="fill:#ffffff;fill-opacity:1;fill-rule:nonzero;stroke:none"
         d="m 760,3489.11 c 0,-47.02 -34.695,-85.17 -77.48,-85.17 -42.762,0 -77.454,38.15 -77.454,85.17 0,47.02 34.692,85.16 77.454,85.16 42.785,0 77.48,-38.14 77.48,-85.16" /><path
         id="path108"
         style="fill:#ffffff;fill-opacity:1;fill-rule:nonzero;stroke:none"
         d="m 980.02,3772.95 c -10.579,0 -19.192,-8.61 -19.192,-19.2 V 3579.4 c 0,-10.59 8.613,-19.19 19.192,-19.19 h 275.49 c 10.6,0 19.21,8.6 19.21,19.19 v 174.35 c 0,10.59 -8.61,19.2 -19.21,19.2 z m 275.49,-233.67 H 980.02 c -22.122,0 -40.118,18 -40.118,40.12 v 174.35 c 0,22.13 17.996,40.12 40.118,40.12 h 275.49 c 22.14,0 40.13,-17.99 40.13,-40.12 V 3579.4 c 0,-22.12 -17.99,-40.12 -40.13,-40.12" /><path
         id="path110"
         style="fill:#ffffff;fill-opacity:1;fill-rule:nonzero;stroke:none"
         d="m 1111.15,3651.41 -152.517,109.5 13.215,14.36 139.502,-100.16 156.56,109.1 12.96,-14.53 -169.72,-118.27" /><path
         id="path112"
         style="fill:#ffffff;fill-opacity:1;fill-rule:nonzero;stroke:none"
         d="m 1112.07,3658.5 168.8,-95.7 -13.18,-12.82 -155.81,87.37 -146.751,-90.44 -12.961,12.98 159.902,98.61" /><path
         id="path114"
         style="fill:#ffffff;fill-opacity:1;fill-rule:nonzero;stroke:none"
         d="m 1581,3562.92 c -49.21,0 -89.08,39.1 -89.08,87.32 0,48.24 39.87,87.33 89.08,87.33 49.17,0 89.06,-39.09 89.06,-87.33 0,-48.22 -39.89,-87.32 -89.06,-87.32 z m 0,208.75 c -67.09,0 -121.47,-53.32 -121.47,-119.08 0,-65.75 54.38,-119.07 121.47,-119.07 67.05,0 121.44,53.32 121.44,119.07 0,65.76 -54.39,119.08 -121.44,119.08" /><path
         id="path116"
         style="fill:#ffffff;fill-opacity:1;fill-rule:nonzero;stroke:none"
         d="m 1561.99,3767.92 h 37.2 c -1.98,10.51 -4.71,21.09 -6.08,31.64 -0.71,5.32 -2.41,13.41 -12.54,13.41 -13.69,0 -12.74,-11.01 -13.8,-16.96 -1.38,-7.59 -2.64,-15.2 -3.89,-22.8 l -0.89,-5.29" /><path
         id="path118"
         style="fill:#ffffff;fill-opacity:1;fill-rule:nonzero;stroke:none"
         d="m 1700.3,3671.57 v -37.21 c 10.51,1.96 21.1,4.69 31.64,6.08 5.3,0.69 13.41,2.41 13.41,12.51 0,13.72 -11.01,12.77 -16.95,13.84 -7.63,1.35 -15.22,2.61 -22.83,3.88 l -5.27,0.9" /><path
         id="path120"
         style="fill:#ffffff;fill-opacity:1;fill-rule:nonzero;stroke:none"
         d="m 1599.19,3537.27 h -37.2 c 1.97,-11.07 4.71,-22.21 6.08,-33.33 0.7,-5.57 2.4,-14.12 12.5,-14.12 13.71,0 12.77,11.59 13.83,17.86 1.38,8.01 2.62,16.02 3.89,24.04 l 0.9,5.55" /><path
         id="path122"
         style="fill:#ffffff;fill-opacity:1;fill-rule:nonzero;stroke:none"
         d="m 1461.62,3633.99 v 37.2 c -10.53,-1.97 -21.09,-4.7 -31.64,-6.09 -5.31,-0.69 -13.41,-2.41 -13.41,-12.51 0,-13.7 10.99,-12.76 16.95,-13.82 7.61,-1.36 15.2,-2.63 22.83,-3.88 l 5.27,-0.9" /><path
         id="path124"
         style="fill:#ffffff;fill-opacity:1;fill-rule:nonzero;stroke:none"
         d="m 1649.06,3747.29 26.33,-26.31 c 6.42,9.22 12.36,19.02 19.22,27.84 3.47,4.45 8.26,11.68 1.11,18.84 -9.68,9.69 -17.19,0.82 -22.38,-2.85 -6.62,-4.68 -13.16,-9.46 -19.71,-14.22 l -4.57,-3.3" /><path
         id="path126"
         style="fill:#ffffff;fill-opacity:1;fill-rule:nonzero;stroke:none"
         d="m 1675.39,3584.73 -26.36,-26.31 c 9.59,-6.78 19.72,-13.04 28.89,-20.24 4.62,-3.63 12.11,-8.72 19.25,-1.57 9.7,9.7 0.5,17.56 -3.38,22.93 -4.94,6.88 -9.93,13.67 -14.96,20.45 l -3.44,4.74" /><path
         id="path128"
         style="fill:#ffffff;fill-opacity:1;fill-rule:nonzero;stroke:none"
         d="m 1512.29,3557.9 -26.31,26.31 c -6.58,-9.36 -12.64,-19.3 -19.65,-28.27 -3.53,-4.51 -8.45,-11.87 -1.31,-19.01 9.7,-9.7 17.36,-0.68 22.62,3.08 6.72,4.79 13.37,9.66 20.02,14.53 l 4.63,3.36" /><path
         id="path130"
         style="fill:#ffffff;fill-opacity:1;fill-rule:nonzero;stroke:none"
         d="m 1487.07,3720.4 26.31,26.32 c -9.65,6.86 -19.9,13.24 -29.16,20.56 -4.67,3.67 -12.25,8.85 -19.4,1.69 -9.69,-9.7 -0.37,-17.68 3.56,-23.12 5,-6.93 10.1,-13.81 15.17,-20.67 l 3.52,-4.78" /><path
         id="path132"
         style="fill:#ffffff;fill-opacity:1;fill-rule:nonzero;stroke:none"
         d="m 1580.57,3609.02 c -23.89,0 -43.28,19 -43.28,42.43 0,23.44 19.39,42.44 43.28,42.44 23.92,0 43.29,-19 43.29,-42.44 0,-23.43 -19.37,-42.43 -43.29,-42.43 z m 0,101.44 c -32.57,0 -58.99,-25.92 -58.99,-57.87 0,-31.93 26.42,-57.85 58.99,-57.85 32.59,0 59.02,25.92 59.02,57.85 0,31.95 -26.43,57.87 -59.02,57.87" /><path
         id="path134"
         style="fill:#ffffff;fill-opacity:1;fill-rule:nonzero;stroke:none"
         d="m 1920.82,3296.96 h -84.56 v 14.03 c 0,14.93 -0.99,24.7 -2.92,29.32 -1.97,4.58 -6.15,6.89 -12.57,6.89 -5.16,0 -9.05,-2 -11.63,-5.97 -2.57,-3.98 -3.87,-9.95 -3.87,-17.89 0,-13.26 2.66,-22.54 7.95,-27.86 5.18,-5.29 20.38,-15.61 45.65,-30.96 21.48,-12.97 36.13,-22.91 43.94,-29.82 7.82,-6.9 14.4,-16.69 19.8,-29.31 5.35,-12.65 8.05,-28.36 8.05,-47.21 0,-30.14 -7.27,-53.78 -21.77,-70.92 -14.51,-17.2 -36.29,-27.8 -65.32,-31.83 v -31.82 h -38.91 v 32.86 c -22.61,2.22 -42.37,10.9 -59.24,26.05 -16.88,15.14 -25.34,41.54 -25.34,79.23 v 16.52 h 84.58 v -20.72 c 0,-22.73 0.86,-36.85 2.61,-42.37 1.74,-5.51 5.95,-8.27 12.66,-8.27 5.7,0 9.97,1.92 12.77,5.76 2.79,3.83 4.18,9.51 4.18,17.05 0,18.98 -1.31,32.56 -3.95,40.72 -2.68,8.17 -11.75,17.06 -27.23,26.68 -25.82,16.19 -43.38,28.1 -52.65,35.7 -9.27,7.6 -17.29,18.32 -24.07,32.11 -6.77,13.82 -10.15,29.45 -10.15,46.88 0,25.25 7.15,45.09 21.46,59.46 14.3,14.36 35.75,23.23 64.37,26.57 v 27.01 h 38.91 v -27.01 c 26.1,-3.34 45.65,-12.11 58.64,-26.27 12.97,-14.14 19.43,-33.71 19.43,-58.7 0,-3.5 -0.27,-8.78 -0.82,-15.91" /><path
         id="path136"
         style="fill:#ffffff;fill-opacity:1;fill-rule:nonzero;stroke:none"
         d="m 1233.36,2432.31 c 0,9.52 -0.48,15.44 -1.45,17.76 -0.97,2.31 -3.61,3.45 -7.94,3.45 -4.01,0 -6.59,-1.18 -7.69,-3.56 -1.11,-2.39 -1.68,-8.27 -1.68,-17.65 v -91.12 c 0,-10.26 0.54,-16.44 1.58,-18.52 1.03,-2.09 3.71,-3.13 8.02,-3.13 4.02,0 6.56,1.15 7.6,3.47 1.03,2.3 1.56,7.92 1.56,16.85 z m 57.19,-15.63 v -62.3 c 0,-16.07 -1.54,-28.21 -4.6,-36.4 -3.07,-8.18 -9.6,-15.3 -19.64,-21.33 -10.06,-6.02 -23.34,-9.04 -39.85,-9.04 -18.93,0 -33.41,2.9 -43.45,8.71 -10.06,5.8 -16.82,12.73 -20.33,20.77 -3.49,8.04 -5.23,19.49 -5.23,34.39 v 65.2 c 0,17.71 1.82,30.85 5.46,39.42 3.63,8.56 10.66,15.55 21.09,20.98 10.43,5.43 23.31,8.17 38.64,8.17 17.15,0 30.97,-3 41.54,-8.94 10.57,-5.96 17.6,-13.11 21.09,-21.43 3.51,-8.36 5.28,-21.08 5.28,-38.2 z m -62.53,243.17 -141.37,-375.36 h -34.37 l 141.81,375.36 z m -162.35,-52.68 c 0,9.52 -0.48,15.4 -1.45,17.63 -0.98,2.23 -3.62,3.35 -7.93,3.35 -4.01,0 -6.63,-1.2 -7.83,-3.58 -1.19,-2.37 -1.77,-8.18 -1.77,-17.4 v -91.12 c 0,-10.43 0.52,-16.68 1.55,-18.76 1.04,-2.08 3.8,-3.12 8.26,-3.12 3.87,0 6.38,1.18 7.48,3.56 1.13,2.39 1.69,7.97 1.69,16.75 z m 57.15,-15.87 v -62.06 c 0,-16.24 -1.51,-28.41 -4.56,-36.52 -3.05,-8.11 -9.61,-15.19 -19.67,-21.22 -10.04,-6.02 -23.33,-9.04 -39.86,-9.04 -19.05,0 -33.55,2.86 -43.53,8.6 -9.97,5.73 -16.723,12.61 -20.22,20.65 -3.488,8.04 -5.234,19.57 -5.234,34.6 v 64.99 c 0,17.87 1.817,31.07 5.469,39.64 3.64,8.55 10.685,15.51 21.105,20.87 10.42,5.36 23.29,8.04 38.63,8.04 16.97,0 30.73,-2.93 41.3,-8.82 10.59,-5.88 17.66,-12.98 21.22,-21.32 3.58,-8.34 5.35,-21.15 5.35,-38.41" /><path
         id="path138"
         style="fill:#ffffff;fill-opacity:1;fill-rule:nonzero;stroke:none"
         d="m 1894.78,2587.46 c 0,-14.63 -11.89,-26.49 -26.52,-26.49 h -267.22 c -14.63,0 -26.51,11.86 -26.51,26.49 v 160.11 c 0,14.64 11.88,26.49 26.51,26.49 h 267.22 c 14.63,0 26.52,-11.85 26.52,-26.49 v -160.11" /><path
         id="path140"
         style="fill:#ffffff;fill-opacity:1;fill-rule:nonzero;stroke:none"
         d="m 1664.18,2774.06 v 26.59 c 0,12.26 9.92,22.18 22.19,22.18 h 96.56 c 12.26,0 22.2,-9.92 22.2,-22.18 v -26.59 h 13.68 v 34.81 c 0,14.64 -11.89,26.5 -26.52,26.5 h -115.28 c -14.65,0 -26.51,-11.86 -26.51,-26.5 v -34.81 h 13.68" /><path
         id="path142"
         style="fill:#c2c3c1;fill-opacity:1;fill-rule:nonzero;stroke:none"
         d="m 2679.53,189.582 c -459.8,0 -832.52,29.359 -832.52,65.566 0,36.231 372.72,65.582 832.52,65.582 459.77,0 832.48,-29.351 832.48,-65.582 0,-36.207 -372.71,-65.566 -832.48,-65.566" /><path
         id="path144"
         style="fill:#5a3114;fill-opacity:1;fill-rule:nonzero;stroke:none"
         d="m 2545.29,1943.29 c 0,-13.12 -10.62,-23.76 -23.75,-23.76 -13.1,0 -23.75,10.64 -23.75,23.76 0,13.11 10.65,23.75 23.75,23.75 13.13,0 23.75,-10.64 23.75,-23.75" /><path
         id="path146"
         style="fill:#5a3114;fill-opacity:1;fill-rule:nonzero;stroke:none"
         d="m 2261.68,1943.29 c 0,-13.12 -10.65,-23.76 -23.75,-23.76 -13.13,0 -23.75,10.64 -23.75,23.76 0,13.11 10.62,23.75 23.75,23.75 13.1,0 23.75,-10.64 23.75,-23.75" /><path
         id="path148"
         style="fill:#8d2422;fill-opacity:1;fill-rule:nonzero;stroke:none"
         d="m 2251.33,1946.08 c 0,10.97 0,210.77 0,210.77 0,74.04 57.15,134.05 127.63,134.05 70.49,0 127.64,-60.01 127.64,-134.05 0,0 0,-204.1 0,-210.77 0,-6.65 2.25,-14.76 13.32,-14.76 11.1,0 15.26,4.17 15.26,14.76 0,10.6 0,218.14 0,218.14 0,86.29 -69.93,156.23 -156.22,156.23 -86.27,0 -156.23,-69.94 -156.23,-156.23 0,0 0,-210.16 0,-218.14 0,-7.97 4.3,-14.76 13.6,-14.76 9.28,0 15,3.81 15,14.76" /><path
         id="path150"
         style="fill:#3aaa87;fill-opacity:1;fill-rule:nonzero;stroke:none"
         d="m 2314.19,1110.35 h 617.258 v 936.699 H 2314.19 Z" /><path
         id="path152"
         style="fill:#2e8569;fill-opacity:1;fill-rule:nonzero;stroke:none"
         d="m 2114.14,1110.35 h 200.051 v 936.699 H 2114.14 Z" /><path
         id="path154"
         style="fill:#2a7960;fill-opacity:1;fill-rule:nonzero;stroke:none"
         d="m 2214.18,1110.35 h 100.012 v 936.699 H 2214.18 Z" /><path
         id="path156"
         style="fill:#3aaa87;fill-opacity:1;fill-rule:nonzero;stroke:none"
         d="m 2114.14,1110.35 h 200.05 l -100.01,142.9 z" /><path
         id="path158"
         style="fill:#5a3114;fill-opacity:1;fill-rule:nonzero;stroke:none"
         d="m 2776.77,1943.29 c 0,-13.12 -10.66,-23.76 -23.75,-23.76 -13.12,0 -23.76,10.64 -23.76,23.76 0,13.11 10.64,23.75 23.76,23.75 13.09,0 23.75,-10.64 23.75,-23.75" /><path
         id="path160"
         style="fill:#5a3114;fill-opacity:1;fill-rule:nonzero;stroke:none"
         d="m 2493.14,1943.29 c 0,-13.12 -10.63,-23.76 -23.75,-23.76 -13.11,0 -23.75,10.64 -23.75,23.76 0,13.11 10.64,23.75 23.75,23.75 13.12,0 23.75,-10.64 23.75,-23.75" /><path
         id="path162"
         style="fill:#c13331;fill-opacity:1;fill-rule:nonzero;stroke:none"
         d="m 2482.79,1946.08 c 0,10.97 0,210.77 0,210.77 0,74.04 57.14,134.05 127.63,134.05 70.5,0 127.65,-60.01 127.65,-134.05 0,0 0,-204.1 0,-210.77 0,-6.65 2.24,-14.76 13.34,-14.76 11.07,0 15.24,4.17 15.24,14.76 0,10.6 0,218.14 0,218.14 0,86.29 -69.93,156.23 -156.23,156.23 -86.26,0 -156.22,-69.94 -156.22,-156.23 0,0 0,-210.16 0,-218.14 0,-7.97 4.31,-14.76 13.59,-14.76 9.28,0 15,3.8 15,14.76" /><path
         id="path164"
         style="fill:#f7911c;fill-opacity:1;fill-rule:nonzero;stroke:none"
         d="m 3179.26,1961.73 0.12,0.32 c -1.01,0.32 -1.96,0.46 -2.93,0.75 -0.96,0.33 -1.83,0.76 -2.82,1.07 l -0.11,-0.31 c -153.72,41.53 -242.06,-225.45 -242.93,-228.17 -5.41,-16.74 -1.37,-28.71 3,-35.8 7.28,-11.83 19.63,-17.53 27.78,-20.12 4.04,-1.29 7.05,-1.82 7.87,-1.95 l 4.7,29.21 c -3.67,0.63 -12.25,3.51 -15.19,8.4 -0.61,0.97 -2.38,3.92 -0.04,11.16 0.78,2.48 82.89,244.25 208.77,208.33 123.5,-43.43 50.74,-288.19 49.97,-290.66 -2.27,-7.28 -5.44,-8.64 -6.47,-9.1 -5.24,-2.29 -13.91,0.32 -17.27,1.93 l -13.03,-26.55 c 0.75,-0.37 3.5,-1.68 7.54,-2.96 8.14,-2.59 21.53,-5.08 34.3,0.37 7.66,3.26 17.89,10.69 23.14,27.47 0.86,2.74 83.05,271.67 -66.4,326.61" /><path
         id="path166"
         style="fill:#d3d2d2;fill-opacity:1;fill-rule:nonzero;stroke:none"
         d="m 3217.45,1643.96 v 0.01 -0.01 m 0,0.01 c 0.71,2.29 38.18,128.7 13.67,215.89 0.01,-0.03 0.03,-0.05 0.04,-0.08 24.45,-87.21 -13.01,-213.55 -13.71,-215.81" /><path
         id="path168"
         style="fill:#cc7717;fill-opacity:1;fill-rule:nonzero;stroke:none"
         d="m 3203.13,1604.49 c -0.46,0.03 -0.91,0.06 -1.37,0.09 l 6.05,29.48 c 1.13,0.13 2.21,0.38 3.17,0.8 1.03,0.46 4.2,1.82 6.47,9.1 v 0 0.01 0 c 0.7,2.26 38.16,128.6 13.71,215.81 10.08,-22.16 13.76,-48.26 14.43,-75.51 0.7,-27.85 0.33,-56.26 -1.86,-84.01 -3.01,-38.61 -21.19,-64.25 -40.6,-95.77" /><path
         id="path170"
         style="fill:#d3d2d2;fill-opacity:1;fill-rule:nonzero;stroke:none"
         d="m 2957.53,1719.83 c 0,1.63 0.3,3.74 1.18,6.46 v 0.01 -0.01 c -0.88,-2.72 -1.18,-4.83 -1.18,-6.46 m 1.31,6.86 c 2.89,8.51 50.85,145.34 128.19,194.31 0.13,0.04 0.25,0.07 0.37,0.11 -77.52,-48.77 -125.67,-185.89 -128.56,-194.42" /><path
         id="path172"
         style="fill:#cc7717;fill-opacity:1;fill-rule:nonzero;stroke:none"
         d="m 2957.32,1700.86 c -9.59,38.28 4.69,80.71 27.47,117.52 23.8,38.36 56.25,88.92 102.24,102.62 -77.34,-48.97 -125.3,-185.8 -128.19,-194.31 -0.07,-0.21 -0.11,-0.34 -0.13,-0.39 v -0.01 c -0.88,-2.72 -1.18,-4.83 -1.18,-6.46 0.01,-2.72 0.84,-4.09 1.22,-4.7 0.77,-1.27 1.91,-2.41 3.26,-3.41 l -4.69,-10.86" /><path
         id="path174"
         style="fill:#2f6298;fill-opacity:1;fill-rule:nonzero;stroke:none"
         d="m 3059.71,911.832 -178.4,113.628 -211.25,10.36 314.13,727.25 234.76,-74.7 -159.24,-776.538" /><path
         id="path176"
         style="fill:#1e3f62;fill-opacity:1;fill-rule:nonzero;stroke:none"
         d="m 2911.19,1119.36 c 0,0 8.91,38.85 24.75,96.34 7.83,28.77 17.36,62.21 27.99,97.91 5.4,17.81 10.71,36.32 16.6,54.96 5.82,18.66 11.74,37.62 17.64,56.58 6.14,18.9 12.26,37.78 18.29,56.38 5.94,18.63 12.33,36.79 18.22,54.45 11.94,35.28 23.49,68.08 33.74,96.08 20.3,56.06 35.51,92.91 35.51,92.91 0,0 -8.89,-38.86 -24.73,-96.34 -7.81,-28.78 -17.34,-62.22 -27.99,-97.91 -5.41,-17.82 -10.68,-36.33 -16.61,-54.96 -5.83,-18.66 -11.75,-37.62 -17.66,-56.58 -6.13,-18.89 -12.26,-37.78 -18.3,-56.37 -5.96,-18.62 -12.33,-36.79 -18.23,-54.45 -11.95,-35.28 -23.5,-68.07 -33.73,-96.08 -20.31,-56.07 -35.49,-92.92 -35.49,-92.92" /><path
         id="path178"
         style="fill:#1e3f62;fill-opacity:1;fill-rule:nonzero;stroke:none"
         d="m 2670.06,1035.82 v 0 c 0,0 13.99,8.34 35.84,18.38 10.88,5.11 23.73,10.68 37.62,16.23 6.99,2.69 14.1,5.75 21.5,8.35 7.38,2.68 14.88,5.4 22.38,8.12 7.58,2.5 15.14,5.01 22.6,7.47 7.42,2.57 14.9,4.55 22.05,6.76 14.36,4.24 27.89,7.81 39.61,10.53 23.37,5.61 39.52,7.7 39.53,7.7 -0.02,0 -14,-8.36 -35.82,-18.4 -10.89,-5.12 -23.73,-10.68 -37.64,-16.23 -6.99,-2.68 -14.09,-5.76 -21.5,-8.33 -7.38,-2.68 -14.88,-5.4 -22.38,-8.11 -7.58,-2.51 -15.15,-5.01 -22.6,-7.47 -7.43,-2.53 -14.91,-4.54 -22.06,-6.74 -14.37,-4.23 -27.89,-7.81 -39.62,-10.53 -23.36,-5.62 -39.51,-7.72 -39.51,-7.73 m 241.13,83.54 v 0 0 0" /><path
         id="path180"
         style="fill:#1e3f62;fill-opacity:1;fill-rule:nonzero;stroke:none"
         d="m 3059.71,911.832 v 0 0 0 m 0,0 c 0,0 -11.98,11.039 -27.82,29.137 -7.98,8.98 -16.97,19.722 -26.23,31.472 -4.56,5.938 -9.53,11.879 -14.1,18.27 -4.67,6.309 -9.39,12.739 -14.12,19.159 -4.55,6.55 -9.1,13.1 -13.57,19.55 -4.53,6.41 -8.58,13.01 -12.73,19.24 -8.13,12.57 -15.4,24.53 -21.32,35 -12.03,20.82 -18.63,35.7 -18.63,35.7 0,0 11.96,-11.05 27.78,-29.15 8,-8.99 16.98,-19.72 26.24,-31.48 4.58,-5.92 9.52,-11.89 14.12,-18.25 4.65,-6.32 9.39,-12.73 14.13,-19.15 4.55,-6.55 9.1,-13.1 13.57,-19.55 4.57,-6.389 8.59,-13.01 12.74,-19.241 8.14,-12.559 15.41,-24.519 21.33,-34.988 12.02,-20.821 18.61,-35.719 18.61,-35.719" /><path
         id="path182"
         style="fill:#5a3114;fill-opacity:1;fill-rule:nonzero;stroke:none"
         d="m 2404.61,877.191 -350.39,105.239 -103.84,485.83 350.4,-105.23 103.83,-485.839" /><path
         id="path184"
         style="fill:#6f4323;fill-opacity:1;fill-rule:nonzero;stroke:none"
         d="M 2404.61,877.191 2875.74,1158 2771.89,1643.84 2300.78,1363.03 2404.61,877.191" /><path
         id="path186"
         style="fill:#84502b;fill-opacity:1;fill-rule:nonzero;stroke:none"
         d="m 1950.38,1468.26 471.12,280.8 350.39,-105.22 -471.11,-280.81 -350.4,105.23" /><path
         id="path188"
         style="fill:#8c562f;fill-opacity:1;fill-rule:nonzero;stroke:none"
         d="m 2109.86,1420.75 471.12,280.8 190.91,-57.71 -471.11,-280.81 -190.92,57.72" /><path
         id="path190"
         style="fill:#a21c22;fill-opacity:1;fill-rule:nonzero;stroke:none"
         d="m 2106.76,890.262 2.01,-7.16 c 12.6,-43.641 52.28,-97.653 104.16,-97.653 h 814.94 c 51.89,0 91.56,54.012 104.17,97.653 l 2.02,7.16 h -1027.3" /><path
         id="path192"
         style="fill:#b42026;fill-opacity:1;fill-rule:nonzero;stroke:none"
         d="m 3229.63,1334.7 c -31.91,-9.7 -65.65,8.31 -75.34,40.23 l -43.92,146.24 c -9.68,31.91 8.33,65.64 40.26,75.35 31.91,9.7 65.64,-8.31 75.33,-40.23 l 43.9,-146.25 c 9.7,-31.91 -8.32,-65.64 -40.23,-75.34 z M 3064.92,938.039 c -31.92,-9.687 -65.66,8.32 -75.36,40.25 l -164.93,542.881 c -9.71,31.91 8.31,65.64 40.23,75.35 31.94,9.7 65.65,-8.31 75.35,-40.23 l 164.93,-542.88 c 9.68,-31.922 -8.31,-65.66 -40.22,-75.371 z m -285.76,0 c -31.93,-9.687 -65.64,8.32 -75.34,40.25 l -164.93,542.881 c -9.71,31.91 8.31,65.64 40.23,75.35 31.92,9.7 65.65,-8.31 75.34,-40.23 l 164.92,-542.88 c 9.7,-31.922 -8.31,-65.66 -40.22,-75.371 z m -285.76,0 c -31.92,-9.687 -65.65,8.32 -75.33,40.25 l -164.94,542.881 c -9.69,31.91 8.31,65.64 40.23,75.35 31.91,9.7 65.65,-8.31 75.33,-40.23 l 164.94,-542.88 c 9.71,-31.922 -8.32,-65.66 -40.23,-75.371 z m -285.73,0 c -31.93,-9.687 -65.66,8.32 -75.36,40.25 l -164.93,542.881 c -9.68,31.91 8.31,65.64 40.24,75.35 31.9,9.7 65.66,-8.31 75.35,-40.23 l 164.92,-542.88 c 9.67,-31.922 -8.32,-65.66 -40.22,-75.371 z M 1834.9,1669.93 2040.88,954.961 c 14.3,-49.43 59.25,-110.609 117.99,-110.609 h 923.04 c 58.78,0 103.72,61.179 117.99,110.609 l 184.79,714.969 H 1834.9" /><path
         id="path194"
         style="fill:#918f90;fill-opacity:1;fill-rule:nonzero;stroke:none"
         d="m 2358.18,509.082 c -146.34,0 -292.34,110.039 -332.55,250.746 l -262.62,919.012 c -30.3,106.05 -116.62,194.52 -175.15,207.57 l -155.57,34.76 c -29.59,6.61 -48.21,35.97 -41.61,65.56 6.62,29.6 35.98,48.23 65.55,41.63 l 155.6,-34.77 c 105.08,-23.48 217.89,-148.48 256.76,-284.55 L 2131.21,790 c 26.52,-92.809 130.41,-171.121 226.97,-171.121 h 0.3 l 861.14,1.473 h 0.09 c 30.29,0 54.85,-24.52 54.9,-54.813 0.06,-30.309 -24.47,-54.937 -54.79,-55 l -861.15,-1.457 h -0.49" /><path
         id="path196"
         style="fill:#29242c;fill-opacity:1;fill-rule:nonzero;stroke:none"
         d="m 2519.26,432.391 c 0,-94.02 -76.18,-170.231 -170.2,-170.231 -94,0 -170.21,76.211 -170.21,170.231 0,93.98 76.21,170.211 170.21,170.211 94.02,0 170.2,-76.231 170.2,-170.211" /><path
         id="path198"
         style="fill:#bdbcbc;fill-opacity:1;fill-rule:nonzero;stroke:none"
         d="m 2460.7,432.391 c 0,-61.672 -49.97,-111.661 -111.64,-111.661 -61.66,0 -111.62,49.989 -111.62,111.661 0,61.64 49.96,111.64 111.62,111.64 61.67,0 111.64,-50 111.64,-111.64" /><path
         id="path200"
         style="fill:#d3d2d2;fill-opacity:1;fill-rule:nonzero;stroke:none"
         d="m 2435.09,432.391 c 0,-47.52 -38.51,-86.02 -86.03,-86.02 -47.5,0 -86.01,38.5 -86.01,86.02 0,47.488 38.51,86 86.01,86 47.52,0 86.03,-38.512 86.03,-86" /><path
         id="path202"
         style="fill:#29242c;fill-opacity:1;fill-rule:nonzero;stroke:none"
         d="m 3200.15,432.391 c 0,-94.02 -76.2,-170.231 -170.23,-170.231 -94,0 -170.21,76.211 -170.21,170.231 0,93.98 76.21,170.211 170.21,170.211 94.03,0 170.23,-76.231 170.23,-170.211" /><path
         id="path204"
         style="fill:#bdbcbc;fill-opacity:1;fill-rule:nonzero;stroke:none"
         d="m 3141.57,432.391 c 0,-61.672 -49.97,-111.661 -111.65,-111.661 -61.64,0 -111.62,49.989 -111.62,111.661 0,61.64 49.98,111.64 111.62,111.64 61.68,0 111.65,-50 111.65,-111.64" /><path
         id="path206"
         style="fill:#d3d2d2;fill-opacity:1;fill-rule:nonzero;stroke:none"
         d="m 3115.96,432.391 c 0,-47.52 -38.52,-86.02 -86.04,-86.02 -47.5,0 -85.99,38.5 -85.99,86.02 0,47.488 38.49,86 85.99,86 47.52,0 86.04,-38.512 86.04,-86" /><path
         id="path208"
         style="fill:#a21c22;fill-opacity:1;fill-rule:nonzero;stroke:none"
         d="m 3421,1670.95 c 0,-16.18 -13.13,-29.28 -29.31,-29.28 H 1843.26 c -16.16,0 -29.28,13.1 -29.28,29.28 0,16.18 13.12,29.27 29.28,29.27 h 1548.43 c 16.18,0 29.31,-13.09 29.31,-29.27" /></g></g></svg>